<svg id="Layer_1" data-name="Layer 1" xmlns="http://www.w3.org/2000/svg" viewBox="0 0 137.1 137.1"><defs><style>.cls-1{fill:#2e2c2c;}.cls-2{fill:#fff;}.cls-3{fill:#b29d44;}.cls-4{isolation:isolate;}</style></defs><g id="background"><rect class="cls-1" width="137.1" height="137.1"/></g><path class="cls-2" d="M81,85a.55.55,0,0,1-.5-.3A43.24,43.24,0,0,0,44.4,65.4a28.1,28.1,0,0,0-2.9.1.69.69,0,0,1-.8-.5.75.75,0,0,1,.5-.8h.1c1-.1,2-.1,2.9-.1A44.87,44.87,0,0,1,81.4,84a.65.65,0,0,1-.2.9C81.3,85,81.1,85,81,85Z"/><path class="cls-2" d="M61.5,68.8a.76.76,0,0,1-.5-.2.63.63,0,0,1,.1-.9h0a44.54,44.54,0,0,1,32.4-9,.66.66,0,0,1,.6.7c0,.3-.4.6-.7.6a43.61,43.61,0,0,0-5.1-.3,42.47,42.47,0,0,0-26.5,9A.49.49,0,0,0,61.5,68.8Z"/><path class="cls-2" d="M70.2,84.9a.76.76,0,0,1-.5-.2A34.48,34.48,0,0,0,44.3,73.8a25.28,25.28,0,0,0-2.8.1c-.4,0-.7-.2-.7-.6h0c0-.4.2-.7.6-.7h0c1-.1,2-.1,3-.1A36.31,36.31,0,0,1,70.7,83.8a.75.75,0,0,1,0,.9C70.6,84.9,70.4,84.9,70.2,84.9Z"/><path class="cls-2" d="M57,84.9a.37.37,0,0,1-.3-.1,26.3,26.3,0,0,0-12.3-3,25.28,25.28,0,0,0-2.8.1c-.4,0-.7-.2-.7-.6s.2-.7.6-.7a28.53,28.53,0,0,1,15.8,2.9.81.81,0,0,1,.3.9C57.4,84.8,57.2,84.9,57,84.9Z"/><path class="cls-2" d="M67.4,71.7c-.4,0-.6-.3-.6-.7a.55.55,0,0,1,.3-.5,38.41,38.41,0,0,1,26.6-6,.66.66,0,0,1,.6.7h0a.73.73,0,0,1-.7.6,43.61,43.61,0,0,0-5.1-.3,38.2,38.2,0,0,0-20.7,6.1A.76.76,0,0,1,67.4,71.7Z"/><path class="cls-2" d="M72.4,75.5a.67.67,0,0,1-.7-.6.71.71,0,0,1,.3-.6,32.88,32.88,0,0,1,21.5-3.9c.4,0,.6.3.6.7s-.3.6-.7.6h-.1a32,32,0,0,0-20.6,3.7C72.7,75.5,72.5,75.5,72.4,75.5Z"/><path class="cls-2" d="M77,79.8a.68.68,0,0,1-.6-.4.6.6,0,0,1,.4-.8,31.46,31.46,0,0,1,16.9-1.7c.4,0,.6.3.6.7s-.3.6-.7.6h-.1a29.22,29.22,0,0,0-5.1-.4,30,30,0,0,0-11.1,2.1A.77.77,0,0,0,77,79.8Z"/><path class="cls-2" d="M81,85c-.4,0-.6-.3-.6-.7a.63.63,0,0,1,.5-.6,32,32,0,0,1,12.7-.5.62.62,0,0,1,.5.8.66.66,0,0,1-.7.6h0a31.3,31.3,0,0,0-12.2.4Z"/><path class="cls-2" d="M72.4,62.5a.68.68,0,0,1-.7-.7h0V49.2a.67.67,0,0,1,.7-.6H87.2a.67.67,0,0,1,.7.6h0v9.7c0,.4-.3.6-.7.7s-.6-.3-.7-.7V49.8H73.1v12a.68.68,0,0,1-.7.7Z"/><path class="cls-2" d="M83,59.9a.68.68,0,0,1-.7-.7h0V54.5a.7.7,0,0,1,1.4,0h0v4.7a.84.84,0,0,1-.7.7Z"/><path class="cls-2" d="M79.1,55.4H76.5c-.4,0-.6-.3-.7-.7s.3-.6.7-.7h2.6c.4,0,.6.3.6.7S79.5,55.3,79.1,55.4Z"/><path class="cls-2" d="M90,49.9H69.7a.55.55,0,0,1-.5-.3,1.27,1.27,0,0,1-.1-.6l2.7-7a.68.68,0,0,1,.6-.4H87.2a.68.68,0,0,1,.6.4l2.7,7a.47.47,0,0,1-.1.6A.45.45,0,0,1,90,49.9ZM70.6,48.6H89l-2.2-5.7H72.9Z"/><path class="cls-3" d="M52.9,52.7a7,7,0,1,1,7-7h0A7,7,0,0,1,52.9,52.7Zm0-12.7a5.7,5.7,0,0,0-5.7,5.7,5.7,5.7,0,0,0,11.4,0h0A5.7,5.7,0,0,0,52.9,40Z"/><path class="cls-3" d="M52.9,40a.67.67,0,0,1-.7-.6h0v-5a.65.65,0,1,1,1.3-.1h0v5A.67.67,0,0,1,52.9,40Z"/><path class="cls-3" d="M49.7,40.8a.86.86,0,0,1-.6-.3l-2.5-4.3a.65.65,0,1,1,1.1-.7l2.5,4.3a.65.65,0,0,1-.2.9A.37.37,0,0,1,49.7,40.8Z"/><path class="cls-3" d="M47.4,43.1a.37.37,0,0,1-.3-.1l-4.4-2.4a.65.65,0,0,1,.7-1.1L47.7,42a.65.65,0,0,1,.2.9h0A.76.76,0,0,1,47.4,43.1Z"/><path class="cls-3" d="M46.5,46.3h-5a.65.65,0,1,1-.1-1.3h5a.67.67,0,0,1,.7.6.56.56,0,0,1-.6.7Z"/><path class="cls-3" d="M43.1,52a.67.67,0,0,1-.7-.6.71.71,0,0,1,.3-.6L47,48.3a.65.65,0,1,1,.7,1.1h0l-4.3,2.5A.37.37,0,0,1,43.1,52Z"/><path class="cls-3" d="M47.2,56.2a.68.68,0,0,1-.7-.7.37.37,0,0,1,.1-.3l2.5-4.3a.65.65,0,1,1,1.1.7h0l-2.5,4.3C47.7,56,47.4,56.2,47.2,56.2Z"/><path class="cls-3" d="M52.9,57.7a.68.68,0,0,1-.7-.7h0V52a.65.65,0,1,1,1.3-.1h0v5C53.5,57.4,53.2,57.7,52.9,57.7Z"/><path class="cls-3" d="M58.6,56.2a.71.71,0,0,1-.6-.3l-2.5-4.3a.69.69,0,0,1,.3-.9.78.78,0,0,1,.8.2l2.5,4.3a.65.65,0,0,1-.2.9h0C58.8,56.1,58.7,56.2,58.6,56.2Z"/><path class="cls-3" d="M62.7,52a.37.37,0,0,1-.3-.1l-4.3-2.5a.65.65,0,0,1,.7-1.1h0l4.3,2.5a.81.81,0,0,1,.3.9A.91.91,0,0,1,62.7,52Z"/><path class="cls-3" d="M64.2,46.3h-5a.65.65,0,1,1-.1-1.3h5a.67.67,0,0,1,.7.6.56.56,0,0,1-.6.7Z"/><path class="cls-3" d="M58.4,43.1a.86.86,0,0,1-.6-.3.65.65,0,0,1,.2-.9l4.3-2.5a.61.61,0,0,1,.9.3.59.59,0,0,1-.3.9l-4.3,2.5A.14.14,0,0,1,58.4,43.1Z"/><path class="cls-3" d="M56.1,40.8a.37.37,0,0,1-.3-.1.65.65,0,0,1-.2-.9h0l2.5-4.3a.65.65,0,1,1,1.1.7h0l-2.5,4.3A.86.86,0,0,1,56.1,40.8Z"/><g class="cls-4"><path class="cls-3" d="M37.2,95.34h1.36L39.81,99,39.63,99l1.1-2.73.53,1.59-1.69,3.64Zm2.95,0H41.3l1.45,3.58-.21,0,1.08-3.55h1.25l-2.27,6.11Z"/><path class="cls-3" d="M47.88,95.3h1.17v5.89H47.88Z"/><path class="cls-3" d="M57.84,101.43l-4.47-4,.35.19,0,3.6H52.56V95.07h0l4.37,4L56.72,99l0-3.67h1.17v6.13Z"/><path class="cls-3" d="M61.39,95.3h4v1.12H62.55v1.26h2.53V98.8H62.55v1.27h3v1.12H61.39Z"/><path class="cls-3" d="M74.85,99.36,72.68,95.3h1.43l1.52,3.06-.35,0,1.5-3.08h1.43L76,99.36v1.83H74.85Z"/><path class="cls-3" d="M79.55,101.19l2.65-6.12h.07l2.66,6.12H83.58l-1.7-4.3.84-.58-2,4.88Zm1.81-2.13h1.77l.41,1H81Z"/><path class="cls-3" d="M89.56,95.3a3.33,3.33,0,0,1,1,.14,2.08,2.08,0,0,1,.72.4,1.78,1.78,0,0,1,.45.63,2.1,2.1,0,0,1,.15.82,2.57,2.57,0,0,1-.11.72,1.87,1.87,0,0,1-.35.65,1.74,1.74,0,0,1-.64.48,2.45,2.45,0,0,1-1,.18h-.83v1.87H87.78V95.3Zm.21,2.9a.91.91,0,0,0,.43-.09.78.78,0,0,0,.28-.22.71.71,0,0,0,.14-.29,1,1,0,0,0,0-.27,1.29,1.29,0,0,0,0-.25,1.21,1.21,0,0,0-.11-.3.73.73,0,0,0-.27-.25,1,1,0,0,0-.49-.11h-.83V98.2Zm1.08.72,1.46,2.27H91L89.47,99Z"/><path class="cls-3" d="M95.27,101.19V95.3H97a3.81,3.81,0,0,1,1.51.27,2.57,2.57,0,0,1,1,.7,2.75,2.75,0,0,1,.56,1,3.52,3.52,0,0,1,.18,1.1,2.79,2.79,0,0,1-.88,2.08,3,3,0,0,1-1,.56,3.24,3.24,0,0,1-1.13.2Zm1.16-1.12h.69a2.53,2.53,0,0,0,.8-.12,1.7,1.7,0,0,0,.62-.34,1.54,1.54,0,0,0,.4-.56,2.34,2.34,0,0,0,0-1.72,1.67,1.67,0,0,0-1-.84,2,2,0,0,0-.49-.08h-.94Z"/></g></svg>