<svg id="Layer_1" data-name="Layer 1" xmlns="http://www.w3.org/2000/svg" viewBox="0 0 408.15 407.45"><path d="M408.15,230.44c-2.41,1.1-4.74,3-7.22,3.19-44,3.75-87.16,12.34-129.62,24.41C200,278.31,133.24,308.23,73.1,351.84c-18.76,13.6-36,29.28-53.87,44.14-4.25,3.54-8,7.63-12.06,11.47h-4c-4.32-4.19-4.24-6.14.17-10.47a544.77,544.77,0,0,1,63.37-53.31c1.15-.84,2.26-1.74,4.41-3.4-20.35-6-39.67-11.65-59-17.31-2.55-.74-5.15-1.28-7.69-2C1.4,320-.4,318.08.23,314.74c.55-2.94,3.38-4.51,6.9-3.62,8.22,2.09,16.47,4.14,24.58,6.64,15.33,4.73,30.58,9.7,45.81,14.74a6.93,6.93,0,0,0,6.62-.77c10.64-6.76,21.42-13.32,32.14-20,1-.6,1.93-1.26,3.73-2.45-17.81-5.74-34.69-11.79-51.91-16.56-20.44-5.66-41.18-10.21-61.79-15.24-.26-.06-.53-.06-.79-.12-3.9-.92-5.92-3.22-5.39-6.15.59-3.24,3.4-4.75,7.46-3.89,7.53,1.6,15.05,3.22,22.55,4.91A715.12,715.12,0,0,1,127.9,302a7.93,7.93,0,0,0,7.08-.42c12.2-6.15,24.51-12.08,36.78-18.09,1-.5,2-1,3.75-1.93-9.54-3.67-18.37-7.22-27.3-10.46A720.84,720.84,0,0,0,21.76,237.88c-5.37-.91-10.77-1.59-16.13-2.5-4-.67-6-2.95-5.52-5.91s3.05-4.6,7-4.05a704.19,704.19,0,0,1,99.53,21.35,761.47,761.47,0,0,1,78.76,27.77,10.14,10.14,0,0,0,6.66,0c14-5,27.85-10.31,41.75-15.52,1.21-.46,2.39-1,4.6-1.87C226.07,252,214.7,247,203.17,242.45a686.14,686.14,0,0,0-149-40.7c-15.6-2.4-31.34-3.87-47-5.77-.79-.09-1.58-.19-2.37-.31-3.07-.5-4.91-2.31-4.64-5.42s2.33-4.73,5.47-4.54c5.17.31,10.34.61,15.49,1.18A716.57,716.57,0,0,1,204.51,232c15.18,5.94,29.94,13,45,19.3a10.11,10.11,0,0,0,6.31.57c33.63-9.94,67.66-18.14,102.37-23.27,14.43-2.13,29-3.6,43.5-5,2-.19,4.32,1.84,6.49,2.85Z"/><path d="M408.15,269.51c-2.16,1.32-4.19,3.5-6.49,3.83-62.52,9.13-122.9,25.79-180.89,51-47.31,20.56-91.51,46.4-132,78.49l-5.9,4.64h-4c-4.26-4.72-4-6.73,1.25-10.88,70-55.7,149.19-92.72,235.2-115.92,27.95-7.53,56.31-13,84.89-17.39,3.34-.51,6,.17,7.89,3.06Z"/><path d="M408.15,311.77c-2.36,1.28-4.58,3.23-7.09,3.73a735.08,735.08,0,0,0-102.23,28.23A628.9,628.9,0,0,0,170,406.36a5.19,5.19,0,0,0-1,1.09h-4c-4.83-4.28-4.5-7.18,1.16-10.77,47.77-30.31,98.89-53.36,152.74-70.48a757.94,757.94,0,0,1,81.24-20.91c3.63-.73,6.25-.05,8,3.29Z"/><path d="M408.15,355.62c-2.49,1.33-4.83,3.22-7.48,3.89-44.43,11.37-87.51,26.43-128.89,46.26-1.07.51-2.09,1.11-3.14,1.68h-4.78c-4.31-4.19-3.62-7.55,2.13-10.29a699.26,699.26,0,0,1,128-46.34,51.08,51.08,0,0,0,5.36-1.47,7.28,7.28,0,0,1,8.83,2.28Z"/><path d="M146,32.31c-.38-1.8-.88-4.67-1.6-7.48-.66-2.59-.91-5,1.51-6.86s4.72-1,7,.48c7.88,5.11,16.38,6.69,25.49,4.23,9.71-2.62,16.7-8.41,20.33-18,1-2.6,2.44-5.4,5.54-4.56a9,9,0,0,1,5.14,4.61,30.89,30.89,0,0,0,44.26,14.76c.8-.47,1.54-1.32,2.37-1.41,2.08-.23,4.81-.93,6.13.07S263.88,22,263.82,24c-.12,4.19-1.67,8.48-1.16,12.54,1.73,13.71,13.71,24.19,27.54,24.81.8,0,1.75-.25,2.36.09,1.93,1.08,4.79,2.06,5.29,3.69s-.82,4.76-2.34,6c-5.86,4.62-10.24,10.06-11.68,17.47-2.08,10.73,1.35,19.6,9.54,26.72a11.82,11.82,0,0,0,1.26,1c2.49,1.62,4.45,3.57,3.49,6.86s-3.76,3.63-6.7,3.7a30.27,30.27,0,0,0-18.08,6.39,27.17,27.17,0,0,0-9.82,29.44c.79,2.79,1.5,5.52-1.24,7.61s-5.2.66-7.65-.9c-17.15-10.94-39.69-2.52-45.33,14.5-.85,2.56-2.47,5-5.36,4.22a8.07,8.07,0,0,1-5-4.23c-6-17.23-28.53-25.3-45.44-14.51-2.44,1.55-4.86,3.07-7.65.95s-2.06-4.8-1.28-7.61c4.94-17.67-8.12-35-27.05-35.87-1.19-.06-2.59.27-3.53-.25-1.5-.84-3.39-2-3.83-3.47s.44-3.48,1.2-5c.47-1,1.79-1.51,2.73-2.26,14.57-11.58,14.43-32.21-.3-43.6a3.65,3.65,0,0,0-.31-.24c-2.5-1.61-4.47-3.59-3.5-6.86s3.75-3.68,6.71-3.72A29.47,29.47,0,0,0,134.79,55C141.79,49.54,145.42,42.29,146,32.31ZM251.9,31.7c-19.38,5.26-35.28.66-47.84-14.82-12.65,15.59-28.6,20-47.87,14.84-.28,9-2.62,17.13-8.08,24.22s-12.88,11.54-21.37,14.4c11.09,16,11.07,31.69,0,47.52,18.31,6.37,28.62,18.94,29.5,38.67,19.34-5.21,35.26-.66,47.8,14.87,12.65-15.77,28.8-20,47.86-15,.88-20,11.39-32.23,29.4-38.61-11-16-11-31.64,0-47.43C263.18,64,252.83,51.65,251.9,31.7Z"/><path d="M203.85,145.13a51,51,0,1,1,51.23-50.68A51.12,51.12,0,0,1,203.85,145.13Zm.32-10.26a40.75,40.75,0,1,0-40.84-40.75A40.87,40.87,0,0,0,204.17,134.87Z"/></svg>