<svg id="Layer_1" data-name="Layer 1" xmlns="http://www.w3.org/2000/svg" viewBox="0 0 339.65 408.04"><path d="M163.18,408c-3.82-1-7.72-1.72-11.46-3-26.13-8.59-42.37-32.82-40.56-60.31.06-.91,0-1.82,0-3-18.75-1.6-34-9.58-44.92-24.82S53,284.88,57.44,266.51c-19.63-1.35-35.36-9.46-46.73-25.35A56.42,56.42,0,0,1,0,206.76a57.24,57.24,0,0,1,16.86-40.53c10.87-11.06,24.24-16.88,39.93-17.74-4.74-26,2.19-47.75,23.9-62.87s44.52-13.88,67.45-.22c-1-7.7-1.91-14.88-2.86-22.05-1.4-10.53-3.51-21-4.1-31.58C140,11,159.54-4,179.2,1c14.47,3.7,25,18.5,22.29,33.92s-5.07,31.17-7.59,46.76c-.1.63-.18,1.27-.35,2.39,22.78-12.47,45.19-13.07,66.22,2.13s27.93,36.5,23.06,62.19c19.74,1.44,35.61,9.91,46.84,26.26,7.88,11.48,11,24.35,9.72,38.19a57.15,57.15,0,0,1-18.25,37.44c-10.73,10.16-23.68,15.34-38.87,16.16,4.48,18.35,2.11,35.35-8.89,50.62s-26,23.05-44.38,24.68c-.36,5.87-.25,11.58-1.14,17.14a58.53,58.53,0,0,1-49,48.44,12.68,12.68,0,0,0-2.17.75Zm111-274.17a48.75,48.75,0,1,0-48.91,48.75A48.67,48.67,0,0,0,274.19,133.87ZM114.37,182.63a48.75,48.75,0,1,0-49-48.8A48.85,48.85,0,0,0,114.37,182.63Zm165.8,73.58c26.53.66,49-21.33,49.4-48.45.43-26.38-22.18-49.43-48.29-49.1a4.41,4.41,0,0,0-3.25,2c-9,16.65-22.63,27-41.13,31.13a4.6,4.6,0,0,0-3,2.81c-.89,5.07-2.1,10.25-1.83,15.32C233.49,236,254,255.56,280.17,256.21ZM108,206.93c-.61-3.79-1.34-7.56-1.79-11.36-.32-2.7-1.77-3.69-4.29-4.22-16-3.31-29-11.8-37-25.86-4-6.93-8.23-7.7-14.62-6.11-.64.16-1.29.27-1.94.43-24.19,5.75-40.65,28.3-38,52.1,2.8,25.29,22.78,43.68,48.12,44.3C85.28,256.86,109,233.22,108,206.93Zm117.19,20.44c-12.62,24-17.64,28.26-43.56,37.75a4,4,0,0,0-2.29,2.26c-1,3.7-2.28,7.45-2.48,11.23-1.12,20.91,7.37,36.95,25.66,47.17a47.25,47.25,0,0,0,53.69-5.28c16-13.52,21.2-30.81,16-51.21-.71-2.81-2.11-4.09-4.92-4.68a55.89,55.89,0,0,1-27-14.4C233.62,244,228.84,236.4,225.22,227.37Zm-110.92.9c-1.58,3.16-2.67,5.73-4.08,8.12-8.78,14.94-21.53,24.52-38.48,28.51-1.39.33-3.32,1.61-3.6,2.78-1.21,5-2.74,10.14-2.61,15.19.53,20.57,10.13,35.94,28.92,44.36,18.32,8.21,36.09,5.65,51.32-7.45,15.43-13.28,20.52-30.33,15.28-50.29-.79-3-2.15-4.3-5.13-4.93a55.56,55.56,0,0,1-26.38-13.95C122.87,244.51,118.06,237.14,114.3,228.27Zm55.84-74.1c-2.78,4.86-5,9.72-8.1,14a57.62,57.62,0,0,1-35.41,23.3c-1.5.33-3.76,1.77-3.9,2.91-.81,6.67-2.28,13.56-1.35,20.08,4,27.83,30.35,46.34,57.32,40.86,27.92-5.68,44.73-32.35,38-60.05-.59-2.45-1.86-3.2-4-4.06-7-2.74-14.24-5.19-20.57-9.08C181.58,175.68,174.7,165.89,170.14,154.17ZM122.05,341.31c-3.56,18.52,4.89,37.9,21,48.44a48.92,48.92,0,0,0,54.06-.24c15.87-10.67,24.21-30,20.61-48.18-22.79-3.91-38.71-16.74-47.85-38.67C160.73,324.52,145,337.27,122.05,341.31ZM169.87,112.7c2.82-4.66,5.94-9.57,8.79-14.63,1.45-2.58,3-5.32,3.5-8.17,3.2-18.83,6.06-37.72,9.18-56.57,1.43-8.63-1.85-15.2-8.79-19.82s-14.64-4.7-21.77-.16-10.35,11.2-9.24,19.71q3.42,26.05,6.91,52.09c.55,4.06.57,8.43,2.21,12C163.21,102.79,166.93,107.87,169.87,112.7Z"/></svg>