<svg id="Layer_1" data-name="Layer 1" xmlns="http://www.w3.org/2000/svg" viewBox="0 0 407.25 408.14"><path d="M315.58,408.14c-1-2.12-3.19-4.57-2.72-6.27s3.36-3.57,5.5-4.14c11.65-3.1,23.39-5.82,35.52-8.76-13.73-55.15-27.39-110-41.17-165.4-2.16.28-4.21.5-6.24.82-22,3.41-42.7,1-60.43-13.92-12-10.12-19.42-23.42-24.52-38-9.49-27.2-10.77-55.35-9.15-83.77.75-13.18.29-11.43,12.34-14.36,37.11-9,74.28-17.85,111.39-26.88,3.92-1,6.57-.27,8.76,3.24,14.5,23.21,26.42,47.54,32.33,74.47,3.16,14.4,4.23,28.93.93,43.45-5,22-18.77,36.7-38.83,45.95-5.28,2.43-10.8,4.34-16.65,6.66q20.49,82.35,41.16,165.37l27.91-6.67c2.58-.62,5.14-1.71,7.73-1.79s5.21.84,7.81,1.32V385c-1.95,1-3.8,2.49-5.88,3-16.86,4.18-33.78,8.12-50.66,12.24-10.4,2.54-20.77,5.25-31.15,7.89ZM224.47,141.3c2.6,16.33,6.59,31.78,15.07,45.76,11.24,18.53,27.69,28.08,49.35,28.38a103.53,103.53,0,0,0,49.46-11.69c16.29-8.39,26.82-21.38,30.32-39.59,2-10.44,1.34-20.89-.46-31.29-2.65-15.38-7.83-29.92-14.43-44.24-1.5.38-2.75.72-4,1-20.49,5.08-39.66,13.34-57.91,23.87-14.15,8.16-28.65,15.63-44.24,20.71C240.08,136.7,232.45,138.88,224.47,141.3Zm125-62.13c-3.78-6.66-7.33-12.7-10.65-18.86-1.2-2.23-2.6-2.49-4.84-1.91-6.29,1.64-12.63,3.08-18.94,4.6q-44.47,10.73-89,21.41c-2.49.59-3.6,1.61-3.61,4.2,0,5-.44,10.09-.36,15.14.13,8.93.51,17.87.83,28.24,14.26-5.29,27.68-9.53,40.45-15.23,12.2-5.45,23.7-12.47,35.55-18.71C314.75,89.73,331.45,83.76,349.49,79.17Z"/><path d="M88.38,408.14c-11.69-2.93-23.35-5.91-35.06-8.77C37.61,395.54,21.87,391.81,6.14,388a22.42,22.42,0,0,1-2.3-.66c-2.69-1-4.3-2.88-3.72-5.77a4.63,4.63,0,0,1,5.9-4c5.46,1.08,10.86,2.44,16.28,3.73,7.07,1.68,14.13,3.4,21.66,5.22q20.64-82.89,41.2-165.4C79.51,219,73.88,217,68.5,214.55,48.58,205.38,34.74,190.79,29.74,169c-3.89-16.95-2-33.79,2.4-50.41,6.41-24.51,17.54-46.88,31-68.21,2-3.19,4.53-3.94,8.12-3.07q59,14.3,118,28.41c3.59.86,5.53,2.78,5.81,6.5,2.33,30.68,1.46,61.12-8.85,90.49-6.8,19.38-17.45,36.1-36.57,45.81-15.33,7.79-31.55,8.43-48.16,5.88l-6.3-.94L53.9,388.9c4.41,1.1,8.7,2.2,13,3.25,7.47,1.83,15,3.44,22.39,5.55,2.16.61,5,2.29,5.55,4.08s-1.55,4.21-2.49,6.36ZM53.89,88.67c-9.44,21.25-16.76,42.73-15.8,66.16.81,19.66,9.13,35.35,26,45.75a97.43,97.43,0,0,0,62.49,14.29c15.53-1.62,28-9.21,37.49-21.72a87.9,87.9,0,0,0,14.27-29.57c2.07-7.34,3.57-14.84,5.29-22.14-8.53-2.62-16.29-4.92-24-7.39-18.57-6-35.28-15.85-52.25-25.17A210,210,0,0,0,53.89,88.67Zm4.28-9.34c26.7,5.91,49.89,17.8,72.69,30.72a183.19,183.19,0,0,0,23.71,11.19c9.69,3.78,19.73,6.67,30.63,10.28,0-14.94,0-28.73,0-42.51,0-2.84-1.06-4.05-3.94-4.69-11.52-2.57-23-5.46-34.43-8.22-24.36-5.88-48.72-11.79-73.1-17.57-1.26-.3-3.53,0-4,.83C65.83,65.65,62.27,72.13,58.17,79.33Z"/><path d="M208.78,20.25c0,4.51,0,9,0,13.54,0,4.06-1.88,6.35-5,6.24-3.69-.13-5.09-2.58-5.12-5.85q-.14-14.13,0-28.27c0-3.29,1.52-5.71,5.13-5.9,3.06-.17,5,2.32,5,6.3C208.82,11,208.78,15.6,208.78,20.25Z"/><path d="M182.63,41.19c.15,4.56-2.87,7.13-6,6.17a27.16,27.16,0,0,1-5.33-2.62c-7-4-14.05-8-21-12.13-3.54-2.09-4.47-4.8-2.84-7.54s4.47-3.22,8-1.23c8,4.52,15.91,9.05,23.75,13.77C180.77,38.6,181.91,40.43,182.63,41.19Z"/><path d="M261.06,28.71c-.65.78-1.5,2.6-2.93,3.46-8.18,4.93-16.49,9.65-24.77,14.39-2.94,1.68-5.66,1.47-7.65-1.5-1.64-2.44-.63-5.4,2.59-7.3,8.11-4.78,16.25-9.51,24.48-14.1C257,21.31,261.23,23.52,261.06,28.71Z"/></svg>