<svg id="Layer_1" data-name="Layer 1" xmlns="http://www.w3.org/2000/svg" viewBox="0 0 408.82 408.99"><path d="M408.82,290.79v63.89c-1.61,2.67-4,3.59-7.05,3.47-3.94-.15-7.9,0-12.22,0,0,10.44-.35,20.4.09,30.32.44,9.67-2.66,16.79-12,20.55H330.57c-9.26-3.5-12.63-10.37-12.08-20,.44-7.42.09-14.89.09-22.34v-8.24H90.25c0,10.39-.36,20.5.1,30.58.44,9.63-2.83,16.5-12.09,20H31.15c-9.33-3.76-12.67-10.91-11.91-20.57.28-3.71,0-7.45,0-11.18V358.8c-.66-.34-.89-.56-1.12-.56-3.73-.06-7.45-.07-11.18-.13C1.62,358,0,356.5,0,351.23q0-28.55,0-57.1c0-5.23,1.63-6.79,7-6.87,4-.06,7.93,0,12,0V111.09c-4.26,0-8.24,0-12.21,0C1.83,111,0,109.27,0,104.34q0-28.75,0-57.5c0-4.9,1.84-6.68,6.79-6.75,4.07-.06,8.14,0,12.48,0,0-8.25-.11-15.95,0-23.65.15-9.21,6.1-16,14.76-16.21q20.74-.45,41.51,0C83.82.4,90,7,90.19,15.29c.17,6.38,0,12.77.06,19.16v5.41H318.58c0-7.77,0-15.32,0-22.87C318.65,6.43,324.93.15,335.52.1c11.71,0,23.42,0,35.14,0,13.11,0,18.88,5.81,18.89,19v21c4,0,7.62.17,11.17,0,3.29-.2,6,.66,8.1,3.19v64.69a8.45,8.45,0,0,1-7.65,3.23c-3.79-.21-7.6,0-11.43,0V287.25c4.15,0,8.11.09,12.07,0C404.87,287.12,407.26,288.07,408.82,290.79Zm-318.4-3.87h228V111.32h-228Zm308,10.75H10.59v50H398.38Zm0-247H10.58v49.92h387.8ZM29.7,111.25V287h50V111.25Zm299.31,0V287h50V111.25ZM79.94,358.41H29.56c0,11.73-.06,23.17,0,34.61,0,3.39,1.85,5.6,5.41,5.62q19.76.11,39.52,0c3.31,0,5.34-1.86,5.37-5.17C80,381.91,79.94,370.34,79.94,358.41Zm249-.08c0,12-.08,23.72,0,35.41,0,3.11,2.09,4.89,5.21,4.9,13.17.07,26.34.1,39.52,0,3.75,0,5.52-2.14,5.56-6.29.08-7.05,0-14.11,0-21.16V358.33ZM79.92,39.91c0-8.4.09-16.49,0-24.58a4.6,4.6,0,0,0-4.82-4.85c-13.44-.1-26.87-.08-40.31,0-2.95,0-5,1.86-5,4.67-.23,8.2-.08,16.4-.08,24.78Zm299.35,0c0-8.17.05-15.88,0-23.59,0-3.59-1.82-5.87-5.57-5.89-13.17-.07-26.34-.17-39.5.17-1.76,0-4.86,2.48-4.94,4C328.76,23,329,31.43,329,39.91Z"/><path d="M54.55,327.64c-2.66,0-5.32.14-8,0-3-.19-4.6-2.09-4.59-5,0-2.71,1.55-4.69,4.35-4.78,5.69-.18,11.4-.18,17.1,0,2.82.11,4.26,2.26,4.22,4.9s-1.54,4.6-4.37,4.79-5.83,0-8.75,0Z"/><path d="M354,327.67c-2.65,0-5.31.08-8,0-3-.11-4.8-1.88-4.9-4.73a4.6,4.6,0,0,1,4.86-5.15q8-.21,15.93,0c3.15.08,5,2,4.87,5.12s-2.11,4.74-5.23,4.81c-2.52.06-5,0-7.57,0Z"/><path d="M353.93,80.7c-2.52,0-5.05.11-7.57,0-3.07-.16-5.13-1.86-5.22-5s1.95-5,5-5.16c5.31-.21,10.64-.2,15.94,0a4.67,4.67,0,0,1,4.79,4.91c0,3.1-1.85,5-4.94,5.16-2.64.19-5.31,0-8,0Z"/><path d="M54.77,80.71c-2.39,0-4.79.05-7.18,0-3.23-.07-5.48-1.62-5.59-5s2.09-5.13,5.3-5.23q7.56-.23,15.14,0c3,.09,5.18,1.85,5.23,4.93.06,3.28-2.07,5.07-5.33,5.23C59.82,80.81,57.29,80.71,54.77,80.71Z"/></svg>